<svg xmlns="http://www.w3.org/2000/svg" viewBox="0 0 520 262" width="520" height="262" role="img" aria-label="Most used languages by lxwiq" font-family="-apple-system, BlinkMacSystemFont, 'Segoe UI', 'Noto Sans', Helvetica, Arial, sans-serif">
  <defs>
    <clipPath id="bar"><rect x="24" y="76" width="472" height="10" rx="5"/></clipPath>
  </defs>
  <rect x="0.5" y="0.5" width="519" height="261" rx="12" fill="none" stroke="#d1d9e0"/>
  <text x="24" y="40" fill="#1f2328" font-size="15" font-weight="600">Most used languages</text>
  <rect x="24" y="76" width="472" height="10" rx="5" fill="#eff2f5"/>
  <g clip-path="url(#bar)">
      <rect x="24.00" y="76" width="162.49" height="10" fill="#00B4AB"/>
      <rect x="186.49" y="76" width="64.78" height="10" fill="#6e4a7e"/>
      <rect x="251.27" y="76" width="53.71" height="10" fill="#f1e05a"/>
      <rect x="304.99" y="76" width="41.41" height="10" fill="#A97BFF"/>
      <rect x="346.40" y="76" width="38.87" height="10" fill="#012456"/>
      <rect x="385.27" y="76" width="31.73" height="10" fill="#3178c6"/>
      <rect x="417.00" y="76" width="30.24" height="10" fill="#e34c26"/>
      <rect x="447.24" y="76" width="10.30" height="10" fill="#ff3e00"/>
  </g>
  <circle cx="29" cy="118" r="5" fill="#00B4AB"/>
  <text x="42" y="122" fill="#1f2328" font-size="12.5">Dart</text>
  <text x="230" y="122" fill="#59636e" font-size="12.5" text-anchor="end">34.4%</text>
  <circle cx="269" cy="118" r="5" fill="#6e4a7e"/>
  <text x="282" y="122" fill="#1f2328" font-size="12.5">Elixir</text>
  <text x="470" y="122" fill="#59636e" font-size="12.5" text-anchor="end">13.7%</text>
  <circle cx="29" cy="150" r="5" fill="#f1e05a"/>
  <text x="42" y="154" fill="#1f2328" font-size="12.5">JavaScript</text>
  <text x="230" y="154" fill="#59636e" font-size="12.5" text-anchor="end">11.4%</text>
  <circle cx="269" cy="150" r="5" fill="#A97BFF"/>
  <text x="282" y="154" fill="#1f2328" font-size="12.5">Kotlin</text>
  <text x="470" y="154" fill="#59636e" font-size="12.5" text-anchor="end">8.8%</text>
  <circle cx="29" cy="182" r="5" fill="#012456"/>
  <text x="42" y="186" fill="#1f2328" font-size="12.5">PowerShell</text>
  <text x="230" y="186" fill="#59636e" font-size="12.5" text-anchor="end">8.2%</text>
  <circle cx="269" cy="182" r="5" fill="#3178c6"/>
  <text x="282" y="186" fill="#1f2328" font-size="12.5">TypeScript</text>
  <text x="470" y="186" fill="#59636e" font-size="12.5" text-anchor="end">6.7%</text>
  <circle cx="29" cy="214" r="5" fill="#e34c26"/>
  <text x="42" y="218" fill="#1f2328" font-size="12.5">HTML</text>
  <text x="230" y="218" fill="#59636e" font-size="12.5" text-anchor="end">6.4%</text>
  <circle cx="269" cy="214" r="5" fill="#ff3e00"/>
  <text x="282" y="218" fill="#1f2328" font-size="12.5">Svelte</text>
  <text x="470" y="218" fill="#59636e" font-size="12.5" text-anchor="end">2.2%</text>
</svg>
